<mxfile host="65bd71144e">
    <diagram name="Page-1" id="z509QsX3Mus9MwCpaaMv">
        <mxGraphModel dx="553" dy="417" grid="1" gridSize="10" guides="1" tooltips="1" connect="1" arrows="1" fold="1" page="1" pageScale="1" pageWidth="827" pageHeight="1169" math="0" shadow="0">
            <root>
                <mxCell id="0"/>
                <mxCell id="1" parent="0"/>
                <mxCell id="xNelP79RrL7e5MTFbQCy-1" value="User" style="swimlane;horizontal=0;whiteSpace=wrap;html=1;" parent="1" vertex="1">
                    <mxGeometry x="20" y="40" width="810" height="200" as="geometry"/>
                </mxCell>
                <mxCell id="xNelP79RrL7e5MTFbQCy-3" value="" style="edgeStyle=orthogonalEdgeStyle;rounded=0;orthogonalLoop=1;jettySize=auto;html=1;" parent="xNelP79RrL7e5MTFbQCy-1" source="xNelP79RrL7e5MTFbQCy-4" target="xNelP79RrL7e5MTFbQCy-6" edge="1">
                    <mxGeometry relative="1" as="geometry"/>
                </mxCell>
                <mxCell id="xNelP79RrL7e5MTFbQCy-4" value="Start" style="ellipse;shape=doubleEllipse;html=1;dashed=0;whiteSpace=wrap;aspect=fixed;fillColor=#d5e8d4;strokeColor=#82b366;" parent="xNelP79RrL7e5MTFbQCy-1" vertex="1">
                    <mxGeometry x="50" y="82.5" width="60" height="60" as="geometry"/>
                </mxCell>
                <mxCell id="xNelP79RrL7e5MTFbQCy-6" value="Select POI Category" style="rounded=1;whiteSpace=wrap;html=1;fillColor=#dae8fc;strokeColor=#6c8ebf;" parent="xNelP79RrL7e5MTFbQCy-1" vertex="1">
                    <mxGeometry x="140" y="82.5" width="120" height="60" as="geometry"/>
                </mxCell>
                <mxCell id="xNelP79RrL7e5MTFbQCy-23" value="" style="points=[[0.25,0.25,0],[0.5,0,0],[0.75,0.25,0],[1,0.5,0],[0.75,0.75,0],[0.5,1,0],[0.25,0.75,0],[0,0.5,0]];shape=mxgraph.bpmn.gateway2;html=1;verticalLabelPosition=bottom;labelBackgroundColor=#ffffff;verticalAlign=top;align=center;perimeter=rhombusPerimeter;outlineConnect=0;outline=none;symbol=none;gwType=exclusive;fillColor=#fff2cc;strokeColor=#d6b656;" parent="xNelP79RrL7e5MTFbQCy-1" vertex="1">
                    <mxGeometry x="450" y="87.5" width="50" height="50" as="geometry"/>
                </mxCell>
                <mxCell id="xNelP79RrL7e5MTFbQCy-24" value="Yes" style="text;html=1;align=center;verticalAlign=middle;resizable=0;points=[];autosize=1;strokeColor=none;fillColor=none;" parent="xNelP79RrL7e5MTFbQCy-1" vertex="1">
                    <mxGeometry x="505" y="87.5" width="40" height="30" as="geometry"/>
                </mxCell>
                <mxCell id="xNelP79RrL7e5MTFbQCy-25" value="No" style="text;html=1;align=center;verticalAlign=middle;resizable=0;points=[];autosize=1;strokeColor=none;fillColor=none;" parent="xNelP79RrL7e5MTFbQCy-1" vertex="1">
                    <mxGeometry x="465" y="57.5" width="40" height="30" as="geometry"/>
                </mxCell>
                <mxCell id="xNelP79RrL7e5MTFbQCy-36" value="Add POI to&lt;div&gt;route?&lt;/div&gt;" style="text;html=1;align=center;verticalAlign=middle;resizable=0;points=[];autosize=1;strokeColor=none;fillColor=none;" parent="xNelP79RrL7e5MTFbQCy-1" vertex="1">
                    <mxGeometry x="435" y="137.5" width="80" height="40" as="geometry"/>
                </mxCell>
                <mxCell id="xNelP79RrL7e5MTFbQCy-41" value="View POI Details" style="rounded=1;whiteSpace=wrap;html=1;fillColor=#dae8fc;strokeColor=#6c8ebf;" parent="xNelP79RrL7e5MTFbQCy-1" vertex="1">
                    <mxGeometry x="300" y="82.5" width="120" height="60" as="geometry"/>
                </mxCell>
                <mxCell id="xNelP79RrL7e5MTFbQCy-44" style="edgeStyle=orthogonalEdgeStyle;rounded=0;orthogonalLoop=1;jettySize=auto;html=1;entryX=0;entryY=0.5;entryDx=0;entryDy=0;entryPerimeter=0;" parent="xNelP79RrL7e5MTFbQCy-1" source="xNelP79RrL7e5MTFbQCy-41" target="xNelP79RrL7e5MTFbQCy-23" edge="1">
                    <mxGeometry relative="1" as="geometry"/>
                </mxCell>
                <mxCell id="xNelP79RrL7e5MTFbQCy-45" value="End" style="points=[[0.145,0.145,0],[0.5,0,0],[0.855,0.145,0],[1,0.5,0],[0.855,0.855,0],[0.5,1,0],[0.145,0.855,0],[0,0.5,0]];shape=mxgraph.bpmn.event;html=1;verticalLabelPosition=bottom;labelBackgroundColor=#ffffff;verticalAlign=top;align=center;perimeter=ellipsePerimeter;outlineConnect=0;aspect=fixed;outline=end;symbol=terminate2;fillColor=#f8cecc;strokeColor=#b85450;" parent="xNelP79RrL7e5MTFbQCy-1" vertex="1">
                    <mxGeometry x="590" y="22.5" width="50" height="50" as="geometry"/>
                </mxCell>
                <mxCell id="xNelP79RrL7e5MTFbQCy-46" style="edgeStyle=orthogonalEdgeStyle;rounded=0;orthogonalLoop=1;jettySize=auto;html=1;entryX=0;entryY=0.5;entryDx=0;entryDy=0;entryPerimeter=0;exitX=0.5;exitY=0;exitDx=0;exitDy=0;exitPerimeter=0;" parent="xNelP79RrL7e5MTFbQCy-1" source="xNelP79RrL7e5MTFbQCy-23" target="xNelP79RrL7e5MTFbQCy-45" edge="1">
                    <mxGeometry relative="1" as="geometry">
                        <Array as="points">
                            <mxPoint x="476" y="87.5"/>
                            <mxPoint x="476" y="47.5"/>
                        </Array>
                    </mxGeometry>
                </mxCell>
                <mxCell id="xNelP79RrL7e5MTFbQCy-40" value="Request POIs" style="text;html=1;align=center;verticalAlign=middle;resizable=0;points=[];autosize=1;strokeColor=none;fillColor=none;" parent="xNelP79RrL7e5MTFbQCy-1" vertex="1">
                    <mxGeometry x="194" y="147.5" width="100" height="30" as="geometry"/>
                </mxCell>
                <mxCell id="xNelP79RrL7e5MTFbQCy-17" style="edgeStyle=orthogonalEdgeStyle;rounded=0;orthogonalLoop=1;jettySize=auto;html=1;exitX=1;exitY=0.5;exitDx=0;exitDy=0;dashed=1;exitPerimeter=0;entryX=0.5;entryY=1;entryDx=0;entryDy=0;startArrow=oval;startFill=0;" parent="1" source="xNelP79RrL7e5MTFbQCy-47" target="xNelP79RrL7e5MTFbQCy-41" edge="1">
                    <mxGeometry relative="1" as="geometry">
                        <Array as="points">
                            <mxPoint x="380" y="320"/>
                            <mxPoint x="380" y="320"/>
                        </Array>
                    </mxGeometry>
                </mxCell>
                <mxCell id="xNelP79RrL7e5MTFbQCy-26" value="" style="points=[[0.145,0.145,0],[0.5,0,0],[0.855,0.145,0],[1,0.5,0],[0.855,0.855,0],[0.5,1,0],[0.145,0.855,0],[0,0.5,0]];shape=mxgraph.bpmn.event;html=1;verticalLabelPosition=bottom;labelBackgroundColor=#ffffff;verticalAlign=top;align=center;perimeter=ellipsePerimeter;outlineConnect=0;aspect=fixed;outline=catching;symbol=message;fillColor=#fff2cc;strokeColor=#d6b656;" parent="1" vertex="1">
                    <mxGeometry x="80" y="335" width="50" height="50" as="geometry"/>
                </mxCell>
                <mxCell id="xNelP79RrL7e5MTFbQCy-27" value="Receive POI&lt;div&gt;Request&lt;/div&gt;" style="text;html=1;align=center;verticalAlign=middle;resizable=0;points=[];autosize=1;strokeColor=none;fillColor=none;" parent="1" vertex="1">
                    <mxGeometry x="60" y="385" width="90" height="40" as="geometry"/>
                </mxCell>
                <mxCell id="xNelP79RrL7e5MTFbQCy-28" value="" style="edgeStyle=orthogonalEdgeStyle;rounded=0;orthogonalLoop=1;jettySize=auto;html=1;entryX=0;entryY=0.5;entryDx=0;entryDy=0;entryPerimeter=0;" parent="1" source="xNelP79RrL7e5MTFbQCy-29" target="xNelP79RrL7e5MTFbQCy-47" edge="1">
                    <mxGeometry relative="1" as="geometry">
                        <mxPoint x="314" y="360" as="targetPoint"/>
                    </mxGeometry>
                </mxCell>
                <mxCell id="xNelP79RrL7e5MTFbQCy-29" value="Query POIs from Database" style="points=[[0.25,0,0],[0.5,0,0],[0.75,0,0],[1,0.25,0],[1,0.5,0],[1,0.75,0],[0.75,1,0],[0.5,1,0],[0.25,1,0],[0,0.75,0],[0,0.5,0],[0,0.25,0]];shape=mxgraph.bpmn.task2;whiteSpace=wrap;rectStyle=rounded;size=10;html=1;container=1;expand=0;collapsible=0;taskMarker=service;fillColor=#dae8fc;strokeColor=#6c8ebf;" parent="1" vertex="1">
                    <mxGeometry x="160" y="330" width="120" height="60" as="geometry"/>
                </mxCell>
                <mxCell id="xNelP79RrL7e5MTFbQCy-30" style="edgeStyle=orthogonalEdgeStyle;rounded=0;orthogonalLoop=1;jettySize=auto;html=1;entryX=0;entryY=0.5;entryDx=0;entryDy=0;entryPerimeter=0;" parent="1" source="xNelP79RrL7e5MTFbQCy-26" target="xNelP79RrL7e5MTFbQCy-29" edge="1">
                    <mxGeometry relative="1" as="geometry"/>
                </mxCell>
                <mxCell id="xNelP79RrL7e5MTFbQCy-31" value="" style="shape=datastore;whiteSpace=wrap;html=1;fillColor=#eeeeee;strokeColor=#36393d;" parent="1" vertex="1">
                    <mxGeometry x="195" y="425" width="50" height="60" as="geometry"/>
                </mxCell>
                <mxCell id="xNelP79RrL7e5MTFbQCy-32" value="" style="edgeStyle=orthogonalEdgeStyle;rounded=0;orthogonalLoop=1;jettySize=auto;html=1;entryX=0.5;entryY=1;entryDx=0;entryDy=0;entryPerimeter=0;exitX=0.5;exitY=0;exitDx=0;exitDy=0;dashed=1;endArrow=classic;startFill=0;endFill=1;" parent="1" source="xNelP79RrL7e5MTFbQCy-31" target="xNelP79RrL7e5MTFbQCy-29" edge="1">
                    <mxGeometry relative="1" as="geometry">
                        <mxPoint x="195" y="448" as="sourcePoint"/>
                        <mxPoint x="170" y="390" as="targetPoint"/>
                    </mxGeometry>
                </mxCell>
                <mxCell id="xNelP79RrL7e5MTFbQCy-38" style="edgeStyle=orthogonalEdgeStyle;rounded=0;orthogonalLoop=1;jettySize=auto;html=1;entryX=0.5;entryY=0;entryDx=0;entryDy=0;entryPerimeter=0;exitX=0.5;exitY=1;exitDx=0;exitDy=0;dashed=1;startArrow=oval;startFill=0;" parent="1" source="xNelP79RrL7e5MTFbQCy-6" target="xNelP79RrL7e5MTFbQCy-26" edge="1">
                    <mxGeometry relative="1" as="geometry">
                        <Array as="points">
                            <mxPoint x="220" y="250"/>
                            <mxPoint x="105" y="250"/>
                        </Array>
                        <mxPoint x="384" y="210" as="sourcePoint"/>
                    </mxGeometry>
                </mxCell>
                <mxCell id="xNelP79RrL7e5MTFbQCy-39" value="System" style="swimlane;horizontal=0;whiteSpace=wrap;html=1;startSize=23;" parent="1" vertex="1">
                    <mxGeometry x="20" y="280" width="810" height="240" as="geometry">
                        <mxRectangle x="80" y="240" width="40" height="50" as="alternateBounds"/>
                    </mxGeometry>
                </mxCell>
                <mxCell id="xNelP79RrL7e5MTFbQCy-47" value="" style="points=[[0.145,0.145,0],[0.5,0,0],[0.855,0.145,0],[1,0.5,0],[0.855,0.855,0],[0.5,1,0],[0.145,0.855,0],[0,0.5,0]];shape=mxgraph.bpmn.event;html=1;verticalLabelPosition=bottom;labelBackgroundColor=#ffffff;verticalAlign=top;align=center;perimeter=ellipsePerimeter;outlineConnect=0;aspect=fixed;outline=catching;symbol=message;fillColor=#fff2cc;strokeColor=#d6b656;" parent="xNelP79RrL7e5MTFbQCy-39" vertex="1">
                    <mxGeometry x="310" y="55" width="50" height="50" as="geometry"/>
                </mxCell>
                <mxCell id="xNelP79RrL7e5MTFbQCy-18" value="Add POI to Route" style="rounded=1;whiteSpace=wrap;html=1;fillColor=#dae8fc;strokeColor=#6c8ebf;" parent="xNelP79RrL7e5MTFbQCy-39" vertex="1">
                    <mxGeometry x="630" y="50" width="120" height="60" as="geometry"/>
                </mxCell>
                <mxCell id="xNelP79RrL7e5MTFbQCy-49" value="" style="edgeStyle=orthogonalEdgeStyle;rounded=0;orthogonalLoop=1;jettySize=auto;html=1;" parent="xNelP79RrL7e5MTFbQCy-39" source="xNelP79RrL7e5MTFbQCy-48" target="xNelP79RrL7e5MTFbQCy-18" edge="1">
                    <mxGeometry relative="1" as="geometry"/>
                </mxCell>
                <mxCell id="xNelP79RrL7e5MTFbQCy-48" value="" style="points=[[0.145,0.145,0],[0.5,0,0],[0.855,0.145,0],[1,0.5,0],[0.855,0.855,0],[0.5,1,0],[0.145,0.855,0],[0,0.5,0]];shape=mxgraph.bpmn.event;html=1;verticalLabelPosition=bottom;labelBackgroundColor=#ffffff;verticalAlign=top;align=center;perimeter=ellipsePerimeter;outlineConnect=0;aspect=fixed;outline=catching;symbol=message;fillColor=#fff2cc;strokeColor=#d6b656;" parent="xNelP79RrL7e5MTFbQCy-39" vertex="1">
                    <mxGeometry x="540" y="55" width="50" height="50" as="geometry"/>
                </mxCell>
                <mxCell id="xNelP79RrL7e5MTFbQCy-51" value="Receive POI&amp;nbsp;&lt;div&gt;to Add&lt;/div&gt;" style="text;html=1;align=center;verticalAlign=middle;resizable=0;points=[];autosize=1;strokeColor=none;fillColor=none;" parent="xNelP79RrL7e5MTFbQCy-39" vertex="1">
                    <mxGeometry x="520" y="110" width="90" height="40" as="geometry"/>
                </mxCell>
                <mxCell id="xNelP79RrL7e5MTFbQCy-50" style="edgeStyle=orthogonalEdgeStyle;rounded=0;orthogonalLoop=1;jettySize=auto;html=1;exitX=1;exitY=0.5;exitDx=0;exitDy=0;exitPerimeter=0;entryX=0.5;entryY=0;entryDx=0;entryDy=0;entryPerimeter=0;dashed=1;startArrow=oval;startFill=0;" parent="1" source="xNelP79RrL7e5MTFbQCy-23" target="xNelP79RrL7e5MTFbQCy-48" edge="1">
                    <mxGeometry relative="1" as="geometry"/>
                </mxCell>
                <mxCell id="xNelP79RrL7e5MTFbQCy-55" style="edgeStyle=orthogonalEdgeStyle;rounded=0;orthogonalLoop=1;jettySize=auto;html=1;entryX=0.75;entryY=1;entryDx=0;entryDy=0;exitX=1;exitY=0.5;exitDx=0;exitDy=0;dashed=1;startArrow=oval;startFill=0;" parent="1" source="xNelP79RrL7e5MTFbQCy-18" target="xNelP79RrL7e5MTFbQCy-41" edge="1">
                    <mxGeometry relative="1" as="geometry"/>
                </mxCell>
            </root>
        </mxGraphModel>
    </diagram>
</mxfile>